<mxfile host="app.diagrams.net" modified="2023-01-31T10:00:32.540Z" agent="5.0 (Macintosh; Intel Mac OS X 10_15_7) AppleWebKit/537.36 (KHTML, like Gecko) Chrome/109.0.0.0 Safari/537.36" etag="gLEF-dgOe-xg2tDjTLCr" version="20.8.13" type="github">
  <diagram id="C5RBs43oDa-KdzZeNtuy" name="Page-1">
    <mxGraphModel dx="1912" dy="983" grid="1" gridSize="10" guides="1" tooltips="1" connect="1" arrows="1" fold="1" page="1" pageScale="1" pageWidth="827" pageHeight="1169" math="0" shadow="0">
      <root>
        <mxCell id="WIyWlLk6GJQsqaUBKTNV-0" />
        <mxCell id="WIyWlLk6GJQsqaUBKTNV-1" parent="WIyWlLk6GJQsqaUBKTNV-0" />
        <mxCell id="ujKwlS2yuwaTPb6AP_2H-15" value="app.module.ts" style="swimlane;html=1;fontStyle=1;align=center;verticalAlign=top;childLayout=stackLayout;horizontal=1;startSize=26;horizontalStack=0;resizeParent=1;resizeLast=0;collapsible=1;marginBottom=0;swimlaneFillColor=#ffffff;rounded=0;shadow=0;comic=0;labelBackgroundColor=none;strokeWidth=1;fillColor=none;fontFamily=Verdana;fontSize=12" vertex="1" parent="WIyWlLk6GJQsqaUBKTNV-1">
          <mxGeometry x="400" y="290" width="160" height="227" as="geometry" />
        </mxCell>
        <mxCell id="ujKwlS2yuwaTPb6AP_2H-16" value="used.module.ts" style="swimlane;html=1;fontStyle=1;align=center;verticalAlign=top;childLayout=stackLayout;horizontal=1;startSize=26;horizontalStack=0;resizeParent=1;resizeLast=0;collapsible=1;marginBottom=0;swimlaneFillColor=#ffffff;rounded=0;shadow=0;comic=0;labelBackgroundColor=none;strokeWidth=1;fillColor=none;fontFamily=Verdana;fontSize=12" vertex="1" parent="WIyWlLk6GJQsqaUBKTNV-1">
          <mxGeometry x="740" y="280" width="160" height="230" as="geometry" />
        </mxCell>
        <mxCell id="ujKwlS2yuwaTPb6AP_2H-17" value="used.module.ts" style="swimlane;html=1;fontStyle=1;align=center;verticalAlign=top;childLayout=stackLayout;horizontal=1;startSize=26;horizontalStack=0;resizeParent=1;resizeLast=0;collapsible=1;marginBottom=0;swimlaneFillColor=#ffffff;rounded=0;shadow=0;comic=0;labelBackgroundColor=none;strokeWidth=1;fillColor=none;fontFamily=Verdana;fontSize=12" vertex="1" parent="WIyWlLk6GJQsqaUBKTNV-1">
          <mxGeometry x="1050" y="280" width="160" height="250" as="geometry" />
        </mxCell>
        <mxCell id="ujKwlS2yuwaTPb6AP_2H-18" value="" style="endArrow=classic;html=1;rounded=0;" edge="1" parent="WIyWlLk6GJQsqaUBKTNV-1">
          <mxGeometry width="50" height="50" relative="1" as="geometry">
            <mxPoint x="560" y="370" as="sourcePoint" />
            <mxPoint x="740" y="370" as="targetPoint" />
          </mxGeometry>
        </mxCell>
        <mxCell id="ujKwlS2yuwaTPb6AP_2H-19" value="" style="endArrow=classic;html=1;rounded=0;exitX=1;exitY=0.5;exitDx=0;exitDy=0;" edge="1" parent="WIyWlLk6GJQsqaUBKTNV-1">
          <mxGeometry width="50" height="50" relative="1" as="geometry">
            <mxPoint x="900" y="370" as="sourcePoint" />
            <mxPoint x="1050" y="370" as="targetPoint" />
          </mxGeometry>
        </mxCell>
        <mxCell id="ujKwlS2yuwaTPb6AP_2H-20" value=".env" style="rounded=0;whiteSpace=wrap;html=1;" vertex="1" parent="WIyWlLk6GJQsqaUBKTNV-1">
          <mxGeometry x="390" y="660" width="160" height="60" as="geometry" />
        </mxCell>
        <mxCell id="ujKwlS2yuwaTPb6AP_2H-21" value="jwtConfig" style="rounded=0;whiteSpace=wrap;html=1;" vertex="1" parent="WIyWlLk6GJQsqaUBKTNV-1">
          <mxGeometry x="760" y="660" width="120" height="60" as="geometry" />
        </mxCell>
        <mxCell id="ujKwlS2yuwaTPb6AP_2H-22" value="" style="endArrow=classic;html=1;rounded=0;exitX=0.5;exitY=0;exitDx=0;exitDy=0;" edge="1" parent="WIyWlLk6GJQsqaUBKTNV-1" source="ujKwlS2yuwaTPb6AP_2H-20">
          <mxGeometry width="50" height="50" relative="1" as="geometry">
            <mxPoint x="430" y="590" as="sourcePoint" />
            <mxPoint x="470" y="520" as="targetPoint" />
            <Array as="points">
              <mxPoint x="470" y="560" />
            </Array>
          </mxGeometry>
        </mxCell>
        <mxCell id="ujKwlS2yuwaTPb6AP_2H-23" value="" style="endArrow=classic;html=1;rounded=0;entryX=0;entryY=0.5;entryDx=0;entryDy=0;" edge="1" parent="WIyWlLk6GJQsqaUBKTNV-1" target="ujKwlS2yuwaTPb6AP_2H-21">
          <mxGeometry width="50" height="50" relative="1" as="geometry">
            <mxPoint x="550" y="690" as="sourcePoint" />
            <mxPoint x="600" y="640" as="targetPoint" />
          </mxGeometry>
        </mxCell>
        <mxCell id="ujKwlS2yuwaTPb6AP_2H-24" value="" style="endArrow=classic;html=1;rounded=0;exitX=0.5;exitY=0;exitDx=0;exitDy=0;" edge="1" parent="WIyWlLk6GJQsqaUBKTNV-1" source="ujKwlS2yuwaTPb6AP_2H-21">
          <mxGeometry width="50" height="50" relative="1" as="geometry">
            <mxPoint x="770" y="560" as="sourcePoint" />
            <mxPoint x="820" y="510" as="targetPoint" />
          </mxGeometry>
        </mxCell>
        <mxCell id="ujKwlS2yuwaTPb6AP_2H-25" value="" style="endArrow=classic;html=1;rounded=0;entryX=0.5;entryY=1;entryDx=0;entryDy=0;" edge="1" parent="WIyWlLk6GJQsqaUBKTNV-1" target="ujKwlS2yuwaTPb6AP_2H-17">
          <mxGeometry width="50" height="50" relative="1" as="geometry">
            <mxPoint x="880" y="690" as="sourcePoint" />
            <mxPoint x="930" y="640" as="targetPoint" />
            <Array as="points">
              <mxPoint x="1130" y="690" />
            </Array>
          </mxGeometry>
        </mxCell>
        <mxCell id="ujKwlS2yuwaTPb6AP_2H-26" value="imports: [ConfigModule.forRoot({schema Validation with hapi/joi)}" style="text;html=1;strokeColor=none;fillColor=none;align=left;verticalAlign=middle;whiteSpace=wrap;rounded=0;" vertex="1" parent="WIyWlLk6GJQsqaUBKTNV-1">
          <mxGeometry x="480" y="565" width="160" height="30" as="geometry" />
        </mxCell>
        <mxCell id="ujKwlS2yuwaTPb6AP_2H-27" value="registerAs" style="text;html=1;strokeColor=none;fillColor=none;align=left;verticalAlign=middle;whiteSpace=wrap;rounded=0;" vertex="1" parent="WIyWlLk6GJQsqaUBKTNV-1">
          <mxGeometry x="630" y="690" width="50" height="30" as="geometry" />
        </mxCell>
        <mxCell id="ujKwlS2yuwaTPb6AP_2H-28" value="imports: [ConfigModule.forFeature(jwtConfig)" style="text;html=1;strokeColor=none;fillColor=none;align=left;verticalAlign=middle;whiteSpace=wrap;rounded=0;" vertex="1" parent="WIyWlLk6GJQsqaUBKTNV-1">
          <mxGeometry x="830" y="565" width="160" height="30" as="geometry" />
        </mxCell>
        <mxCell id="ujKwlS2yuwaTPb6AP_2H-29" value="&lt;div style=&quot;color: rgb(214, 222, 235); background-color: rgb(20, 37, 49); font-family: Menlo, Monaco, &amp;quot;Courier New&amp;quot;, monospace; line-height: 18px;&quot;&gt;&lt;div&gt;    @Inject(jwtConfig&lt;span style=&quot;color: #7f678f;&quot;&gt;.&lt;/span&gt;&lt;span style=&quot;color: #82aaff;&quot;&gt;KEY&lt;/span&gt;)&lt;/div&gt;&lt;div style=&quot;&quot;&gt;    &lt;span style=&quot;color: #c792ea;&quot;&gt;private&lt;/span&gt; &lt;span style=&quot;color: #c792ea;&quot;&gt;readonly&lt;/span&gt; &lt;span style=&quot;color: #d7dbe0;&quot;&gt;jwtConfiguration&lt;/span&gt;&lt;span style=&quot;color: #7fdbca;&quot;&gt;:&lt;/span&gt; &lt;span style=&quot;color: #ffcb8b;&quot;&gt;ConfigType&lt;/span&gt;&amp;lt;&lt;span style=&quot;color: #7fdbca;&quot;&gt;typeof&lt;/span&gt; jwtConfig&amp;gt;,&lt;/div&gt;&lt;/div&gt;" style="text;html=1;strokeColor=none;fillColor=none;align=left;verticalAlign=middle;whiteSpace=wrap;rounded=0;" vertex="1" parent="WIyWlLk6GJQsqaUBKTNV-1">
          <mxGeometry x="1140" y="565" width="360" height="30" as="geometry" />
        </mxCell>
      </root>
    </mxGraphModel>
  </diagram>
</mxfile>
